<svg xmlns="http://www.w3.org/2000/svg" width="1200" height="750" viewBox="0 0 1200 750" fill="none">
  <defs>
    <linearGradient id="bg" x1="70" y1="30" x2="1130" y2="710" gradientUnits="userSpaceOnUse">
      <stop stop-color="#FFF9EE"/>
      <stop offset="1" stop-color="#E9D8BD"/>
    </linearGradient>
    <radialGradient id="glow" cx="0" cy="0" r="1" gradientUnits="userSpaceOnUse" gradientTransform="translate(844 340) rotate(90) scale(280 280)">
      <stop stop-color="#F4D69E" stop-opacity=".35"/>
      <stop offset="1" stop-color="#F4D69E" stop-opacity="0"/>
    </radialGradient>
  </defs>
  <rect width="1200" height="750" fill="url(#bg)"/>
  <circle cx="844" cy="340" r="280" fill="url(#glow)"/>
  <rect x="618" y="380" width="455" height="206" rx="34" fill="#2A1C12"/>
  <rect x="636" y="396" width="420" height="176" rx="26" fill="#7B5A35"/>
  <rect x="710" y="316" width="276" height="94" rx="46" fill="#B88A35"/>
  <rect x="658" y="282" width="142" height="72" rx="35" fill="#2A1C12"/>
  <rect x="900" y="282" width="142" height="72" rx="35" fill="#2A1C12"/>
  <circle cx="724" cy="318" r="22" fill="#D9B268"/>
  <circle cx="968" cy="318" r="22" fill="#D9B268"/>
  <circle cx="798" cy="470" r="58" fill="#2F2116"/>
  <circle cx="798" cy="470" r="44" fill="#C7984A"/>
  <circle cx="930" cy="470" r="58" fill="#2F2116"/>
  <circle cx="930" cy="470" r="44" fill="#C7984A"/>
  <text x="88" y="320" fill="#1A140F" font-family="Georgia, 'Times New Roman', serif" font-size="74">Livre d&apos;or audio</text>
  <text x="88" y="392" fill="#6B6258" font-family="Inter, Arial, sans-serif" font-size="33">Messages vocaux authentiques dans une ambiance chic</text>
</svg>
